<svg width="500" height="100" viewBox="0 0 500 100" fill="none" xmlns="http://www.w3.org/2000/svg">
  <path d="M89.198 44.2554V74.7597C89.198 83.1742 82.3898 90 73.9969 90H25.1893C16.7964 90 10 83.1742 10 74.7597V44.2554C10 40.4777 11.6903 36.9472 14.6366 34.5934L41.8928 12.7274C46.4355 9.09088 52.7742 9.09088 57.3169 12.7274L84.5731 34.5934C87.5194 36.9472 89.198 40.4777 89.198 44.2554Z" fill="#0C0A3C"/>
  <path d="M49.0258 38.1658C49.2037 37.6072 49.9942 37.6072 50.1721 38.1658L53.7173 49.2989C53.7705 49.4661 53.8941 49.6017 54.0557 49.6702L63.9318 53.8573C64.4207 54.0646 64.4207 54.7576 63.9318 54.9649L54.0557 59.1519C53.8941 59.2204 53.7705 59.356 53.7173 59.5232L50.1721 70.6563C49.9942 71.215 49.2037 71.215 49.0258 70.6563L45.4806 59.5232C45.4273 59.356 45.3037 59.2204 45.1422 59.1519L35.2661 54.9649C34.7771 54.7576 34.7771 54.0646 35.2661 53.8573L45.1422 49.6702C45.3037 49.6017 45.4273 49.4661 45.4806 49.2989L49.0258 38.1658Z" fill="white"/>
  <path d="M64.6341 29.6701C64.8161 29.1201 65.5941 29.1201 65.7761 29.6701L67.4527 34.7348C67.5079 34.9019 67.6336 35.0363 67.7965 35.1028L72.5283 37.0326C73.0275 37.2362 73.0275 37.943 72.5283 38.1466L67.7965 40.0764C67.6336 40.1428 67.5079 40.2773 67.4527 40.4443L65.7761 45.5091C65.5941 46.0591 64.8161 46.0591 64.6341 45.5091L62.9575 40.4443C62.9022 40.2773 62.7766 40.1428 62.6136 40.0764L57.8819 38.1466C57.3827 37.943 57.3827 37.2362 57.8819 37.0326L62.6136 35.1028C62.7766 35.0363 62.9022 34.9019 62.9575 34.7348L64.6341 29.6701Z" fill="#0A5DF4"/>
  <path d="M116.05 66.9424V33.9497H118.155L132.155 48.6349L146.008 33.9497H148.113V66.9424H141.847V46.2363L133.085 55.7816H131.274L122.365 46.2363V66.9424H116.05Z" fill="#0C0A3C"/>
  <path d="M158.782 78.6905L168.376 61.1662L176.698 42.2713H183.306L165.341 78.6905H158.782ZM166.81 66.6487L155.453 42.2713H162.209L171.264 62.341L166.81 66.6487Z" fill="#0C0A3C"/>
  <path d="M190.647 66.9424V34.1455H203.815C205.316 34.1455 206.784 34.3576 208.22 34.7819C209.689 35.2061 210.994 35.8425 212.136 36.6909C213.311 37.5394 214.241 38.6327 214.926 39.9706C215.644 41.276 216.003 42.8261 216.003 44.6209C216.003 46.6442 215.449 48.3575 214.339 49.7607C213.262 51.1313 211.859 52.1756 210.129 52.8936C208.432 53.5789 206.605 53.9215 204.647 53.9215C204.157 53.9215 203.521 53.8726 202.738 53.7747C201.987 53.6768 201.188 53.5626 200.339 53.432C199.491 53.3015 198.691 53.171 197.941 53.0404C197.223 52.8772 196.684 52.7467 196.325 52.6488V48.5859C197.239 48.9123 198.267 49.1733 199.409 49.3691C200.551 49.5649 201.693 49.6628 202.836 49.6628C204.924 49.6628 206.556 49.206 207.731 48.2922C208.938 47.3785 209.542 46.1547 209.542 44.6209C209.542 42.9892 208.905 41.7655 207.633 40.9496C206.36 40.1012 204.794 39.6769 202.934 39.6769H196.962V66.9424H190.647ZM208.905 66.9424L196.227 52.6488L201.612 50.5929L217.423 66.9424H208.905Z" fill="#0C0A3C"/>
  <path d="M234.651 67.5298C232.53 67.5298 230.638 67.1055 228.973 66.2571C227.342 65.4086 226.036 64.2011 225.057 62.6347C224.111 61.0357 223.638 59.1429 223.638 56.9565V42.2713H229.512V56.0753C229.512 58.0007 230.001 59.4692 230.98 60.4809C231.959 61.4599 233.183 61.9494 234.651 61.9494C236.12 61.9494 237.327 61.4599 238.274 60.4809C239.253 59.4692 239.742 58.0007 239.742 56.0753V42.2713H245.665V56.9565C245.665 59.1429 245.176 61.0357 244.197 62.6347C243.25 64.2011 241.945 65.4086 240.281 66.2571C238.616 67.1055 236.74 67.5298 234.651 67.5298Z" fill="#0C0A3C"/>
  <path d="M287.075 66.9424V52.5999C287.075 50.805 286.619 49.4833 285.705 48.6349C284.791 47.7538 283.584 47.3132 282.083 47.3132C280.875 47.3132 279.847 47.7048 278.999 48.488C278.15 49.2386 277.334 50.136 276.551 51.1803L275.376 46.8727C276.388 45.4694 277.579 44.262 278.95 43.2503C280.32 42.206 281.903 41.6839 283.698 41.6839C285.362 41.6839 286.896 42.0592 288.299 42.8098C289.703 43.5603 290.812 44.6862 291.628 46.1873C292.476 47.6885 292.901 49.5649 292.901 51.8167V66.9424H287.075ZM254.866 66.9424V42.2713H260.642V66.9424H254.866ZM270.971 66.9424L270.922 52.5999C270.922 50.805 270.465 49.4833 269.551 48.6349C268.67 47.7538 267.479 47.3132 265.978 47.3132C264.77 47.3132 263.71 47.7048 262.796 48.488C261.882 49.2386 261.034 50.136 260.251 51.1803V45.8936C260.773 45.2083 261.36 44.5557 262.013 43.9356C262.698 43.2829 263.498 42.7445 264.411 42.3203C265.325 41.896 266.386 41.6839 267.593 41.6839C269.551 41.6839 271.313 42.2224 272.88 43.2993C274.479 44.3435 275.588 45.8936 276.208 47.9496L276.747 50.0544V66.9424H270.971Z" fill="#0C0A3C"/>
  <path d="M311.549 67.6766C309.558 67.6766 307.714 67.1708 306.017 66.1592C304.32 65.1475 302.95 63.679 301.906 61.7536C300.894 59.8282 300.388 57.5112 300.388 54.8026C300.388 52.0614 300.894 49.7118 301.906 47.7538C302.95 45.7957 304.353 44.2946 306.115 43.2503C307.877 42.206 309.836 41.6839 311.989 41.6839C313.327 41.6839 314.682 42.0102 316.052 42.6629C317.455 43.2829 318.63 44.1151 319.577 45.1594V42.2713H325.353V66.9424H319.577V62.7816C318.826 64.1195 317.749 65.278 316.346 66.2571C314.975 67.2034 313.376 67.6766 311.549 67.6766ZM312.919 61.9005C314.094 61.9005 315.187 61.5904 316.199 60.9704C317.211 60.3504 318.027 59.4856 318.647 58.376C319.267 57.2338 319.577 55.8959 319.577 54.3621L319.528 50.5929C318.647 49.5812 317.668 48.7817 316.591 48.1943C315.546 47.6069 314.388 47.3132 313.115 47.3132C311.745 47.3132 310.553 47.6722 309.542 48.3901C308.53 49.1081 307.747 50.0381 307.192 51.1803C306.67 52.2898 306.409 53.4973 306.409 54.8026C306.409 56.108 306.67 57.2991 307.192 58.376C307.747 59.4529 308.514 60.3177 309.493 60.9704C310.472 61.5904 311.614 61.9005 312.919 61.9005Z" fill="#0C0A3C"/>
  <path d="M351.588 66.9424L351.539 52.5999C351.539 50.805 351.115 49.4833 350.267 48.6349C349.451 47.7538 348.292 47.3132 346.791 47.3132C345.649 47.3132 344.572 47.7048 343.56 48.488C342.549 49.2386 341.651 50.136 340.868 51.1803V45.8936C341.39 45.2083 342.027 44.5557 342.777 43.9356C343.528 43.2829 344.376 42.7445 345.323 42.3203C346.302 41.896 347.346 41.6839 348.456 41.6839C350.152 41.6839 351.67 42.0592 353.008 42.8098C354.346 43.5603 355.406 44.6862 356.19 46.1873C356.973 47.6885 357.364 49.5649 357.364 51.8167V66.9424H351.588ZM335.092 66.9424V31.698H340.868V66.9424H335.092Z" fill="#0C0A3C"/>
  <path d="M380.418 67.5298C379.015 67.5298 377.498 67.4645 375.866 67.334C374.267 67.2034 372.733 67.0403 371.264 66.8445C369.796 66.6487 368.54 66.4365 367.495 66.2081V34.5861C369.323 34.1945 371.281 33.9008 373.369 33.705C375.458 33.4765 377.563 33.3623 379.684 33.3623C382.295 33.3623 384.53 33.7702 386.39 34.5861C388.25 35.3693 389.686 36.4625 390.698 37.8658C391.709 39.269 392.215 40.8844 392.215 42.7119C392.215 44.3435 391.775 45.7957 390.894 47.0685C390.045 48.3412 388.952 49.3202 387.614 50.0055C388.593 50.2666 389.539 50.6908 390.453 51.2782C391.399 51.8656 392.166 52.6651 392.754 53.6768C393.341 54.6884 393.635 55.9774 393.635 57.5439C393.635 59.3713 393.113 61.052 392.068 62.5858C391.024 64.0869 389.507 65.2944 387.516 66.2081C385.558 67.0892 383.192 67.5298 380.418 67.5298ZM380.32 61.9984C382.311 61.9984 383.926 61.5578 385.166 60.6767C386.406 59.7956 387.027 58.6371 387.027 57.2012C387.027 55.7327 386.39 54.6558 385.117 53.9705C383.877 53.2525 382.295 52.8936 380.369 52.8936H372.733V48.0964H380.467C382.229 48.0964 383.567 47.6559 384.481 46.7748C385.427 45.8936 385.901 44.8004 385.901 43.4951C385.901 42.5487 385.623 41.7492 385.069 41.0965C384.546 40.4112 383.828 39.889 382.915 39.5301C382.034 39.1711 381.006 38.9916 379.831 38.9916C378.721 38.9916 377.644 39.0406 376.6 39.1385C375.588 39.2037 374.658 39.318 373.81 39.4811V61.411C374.463 61.5415 375.197 61.6557 376.013 61.7536C376.829 61.8515 377.628 61.9168 378.411 61.9494C379.194 61.982 379.831 61.9984 380.32 61.9984Z" fill="#0C0A3C"/>
  <path d="M411.059 67.6766C409.069 67.6766 407.225 67.1708 405.528 66.1592C403.831 65.1475 402.46 63.679 401.416 61.7536C400.404 59.8282 399.899 57.5112 399.899 54.8026C399.899 52.0614 400.404 49.7118 401.416 47.7538C402.46 45.7957 403.864 44.2946 405.626 43.2503C407.388 42.206 409.346 41.6839 411.5 41.6839C412.838 41.6839 414.192 42.0102 415.563 42.6629C416.966 43.2829 418.141 44.1151 419.087 45.1594V42.2713H424.863V66.9424H419.087V62.7816C418.337 64.1195 417.26 65.278 415.856 66.2571C414.486 67.2034 412.887 67.6766 411.059 67.6766ZM412.43 61.9005C413.605 61.9005 414.698 61.5904 415.71 60.9704C416.721 60.3504 417.537 59.4856 418.157 58.376C418.777 57.2338 419.087 55.8959 419.087 54.3621L419.038 50.5929C418.157 49.5812 417.178 48.7817 416.101 48.1943C415.057 47.6069 413.898 47.3132 412.626 47.3132C411.255 47.3132 410.064 47.6722 409.052 48.3901C408.041 49.1081 407.257 50.0381 406.703 51.1803C406.181 52.2898 405.919 53.4973 405.919 54.8026C405.919 56.108 406.181 57.2991 406.703 58.376C407.257 59.4529 408.024 60.3177 409.003 60.9704C409.982 61.5904 411.125 61.9005 412.43 61.9005Z" fill="#0C0A3C"/>
  <path d="M434.603 66.9424V42.2713H440.379V66.9424H434.603ZM440.379 52.9425V46.9706C441.26 45.4694 442.288 44.2293 443.463 43.2503C444.67 42.2713 446.008 41.7818 447.476 41.7818C448.39 41.7818 449.19 41.945 449.875 42.2713V48.7817C449.386 48.488 448.88 48.2596 448.358 48.0964C447.835 47.9332 447.264 47.8517 446.644 47.8517C445.176 47.8517 443.952 48.3412 442.973 49.3202C442.027 50.2992 441.162 51.5066 440.379 52.9425Z" fill="#0C0A3C"/>
  <path d="M467.202 67.5298C465.08 67.5298 463.188 67.1055 461.523 66.2571C459.892 65.4086 458.586 64.2011 457.607 62.6347C456.661 61.0357 456.188 59.1429 456.188 56.9565V42.2713H462.062V56.0753C462.062 58.0007 462.551 59.4692 463.53 60.4809C464.509 61.4599 465.733 61.9494 467.202 61.9494C468.67 61.9494 469.878 61.4599 470.824 60.4809C471.803 59.4692 472.292 58.0007 472.292 56.0753V42.2713H478.215V56.9565C478.215 59.1429 477.726 61.0357 476.747 62.6347C475.801 64.2011 474.495 65.4086 472.831 66.2571C471.167 67.1055 469.29 67.5298 467.202 67.5298Z" fill="#0C0A3C"/>
</svg>
